      ) (`-.                           (` .-') /`           ) (`-.
       ( OO ).                          `.( OO ),'            ( OO ).
      (_/.  _)-.-'),-----. ,--.     ,--./  .--.  .-'),-----.(_/.  _)-.
         `.'  ( OO'  .-.  '|  |.-') |      |  | ( OO'  .-.  '  `.'  /
             /Y   |  | |  ||  | OO )|  |   |  |,/   |  | |  |      /
             _) |  ||  ||  |`-' ||  |.'.|  |_)_) |  ||  |      |
        .'    _) |  | |  (|  '---.'|         |    |  | |  | .'    _)
       /  .'.    `'  '-'  '|      | |   ,'.   |    `'  '-'  '/  .'.  
      '--'   '--'   `-----' `------' '--'   '--'      `-----''--'   '--'


      ▀▀▀▀▀▀▀▀▀▀▀▀▀▀▀▀▀▀▀▀▀▀▀▀▀▀▀▀▀▀▀▀▀▀▀▀▀▀▀▀▀▀▀▀▀▀▀▀▀▀▀▀▀▀▀▀▀▀▀▀▀▀▀▀▀▀▀▀▀▀

                     █░░░░░░░░░░░░░░░░░░░░░░░░░░░░░█
                    ██ Planet 51[2009]R5-DvDrip-LW ██
                     █░░░░░░░░░░░░░░░░░░░░░░░░░░░░░█

File Name    : Planet 51[2009]R5-DvDrip-LW
Type         : Movie
Format       : AVI
File Size    : 701 MB
Duration     : 01:26:24
Language     : English
Source       : DvD
Subtitles    : None
Genre        : Animation | Adventure | Comedy
IMDB Link    : http://www.imdb.com/title/tt0762125/
IMDB Rating  : 6.1/10
IMDB Votes   : 2,418 Votes
     ▄▄▄▄▄▄▄▄▄▄▄▄▄▄▄▄▄▄▄▄▄▄▄▄▄▄▄▄▄▄▄▄▄▄▄▄▄▄▄▄▄▄▄▄▄▄▄▄▄▄▄▄▄▄▄▄▄▄▄▄▄▄▄▄▄▄▄▄▄▄
 
                        █░░░░░░░░░░░░░░░░░░░░░░░░█
                       ██       Video Info       ██
                        █░░░░░░░░░░░░░░░░░░░░░░░░█

Format                           : MPEG-4 Visual
Format profile                   : Streaming Video@L1
Format settings, BVOP            : Yes
Format settings, QPel            : No
Format settings, GMC             : No warppoints
Format settings, Matrix          : Default (H.263)
Muxing mode                      : Packed bitstream
Codec ID                         : XVID
Codec ID/Hint                    : XviD
Duration                         : 1h 26mn
Bit rate                         : 1 018 Kbps
Width                            : 672 pixels
Height                           : 288 pixels
Display aspect ratio             : 2.35
Frame rate                       : 25.000 fps
Resolution                       : 24 bits
Colorimetry                      : 4:2:0
Scan type                        : Progressive
Bits/(Pixel*Frame)               : 0.210
Stream size                      : 629 MiB (90%)
Writing library                  : XviD 55
     ▄▄▄▄▄▄▄▄▄▄▄▄▄▄▄▄▄▄▄▄▄▄▄▄▄▄▄▄▄▄▄▄▄▄▄▄▄▄▄▄▄▄▄▄▄▄▄▄▄▄▄▄▄▄▄▄▄▄▄▄▄▄▄▄▄▄▄▄▄▄

                         █░░░░░░░░░░░░░░░░░░░░░░░░█
                        ██      Sound Info        ██
                         █░░░░░░░░░░░░░░░░░░░░░░░░█

Format                           : MPEG Audio
Format version                   : Version 1
Format profile                   : Layer 3
Codec ID                         : 55
Codec ID/Hint                    : MP3
Duration                         : 1h 20mn
Bit rate mode                    : Variable
Bit rate                         : 113 Kbps
Minimum bit rate                 : 112 Kbps
Channel(s)                       : 2 channels
Sampling rate                    : 44.1 KHz
Resolution                       : 16 bits
Video delay                      : 131ms
Stream size                      : 65.1 MiB (9%)
Alignment                        : Split accross interleaves
Interleave, duration             : 28 ms (0.70 video frame)
Interleave, preload duration     : 540 ms
Writing library                  : LAME3.98r
    ▄▄▄▄▄▄▄▄▄▄▄▄▄▄▄▄▄▄▄▄▄▄▄▄▄▄▄▄▄▄▄▄▄▄▄▄▄▄▄▄▄▄▄▄▄▄▄▄▄▄▄▄▄▄▄▄▄▄▄▄▄▄▄▄▄▄▄▄▄▄

                          █░░░░░░░░░░░░░░░░░░░░░░░░█
                         ██          Plot          ██
                          █░░░░░░░░░░░░░░░░░░░░░░░░█

When Earth astronaut Capt. Chuck Baker (Dwayne 
Johnson) arrives on Planet 51 -- a world reminiscent 
of American suburbia circa 1950 -- he tries to avoid 
capture, recover his spaceship and make it home safely, 
all with the help of an empathetic little green being. 
Joe Stillman (Shrek) writes and Jorge Blanco directs 
this animated thrill ride that also features the vocal 
talents of Jessica Biel and Gary Oldman.

Starring: Dwayne "The Rock" Johnson, Jessica Biel

Director: Jorge Blanco
    ▄▄▄▄▄▄▄▄▄▄▄▄▄▄▄▄▄▄▄▄▄▄▄▄▄▄▄▄▄▄▄▄▄▄▄▄▄▄▄▄▄▄▄▄▄▄▄▄▄▄▄▄▄▄▄▄▄▄▄▄▄▄▄▄▄▄▄▄▄▄

ScreenShots
 
http://imgshack.info/images/jp2wtjxrgo7nrrbni7jr.png
 
http://imgshack.info/images/0n8hrhddnimmfdug6oh.png
 
http://imgshack.info/images/xe8xnj6wkh5niemlgdn.png
 
http://imgshack.info/images/u70omegwl8t7rwzotqg0.png
 
http://imgshack.info/images/l0qptio9j1ef2fhvvx1.jpg